<svg xmlns="http://www.w3.org/2000/svg" viewBox="0 0 646.6 200" xmlns:v="https://vecta.io/nano"><g fill="#9d9d9c"><path d="M171.5 177.6c-3.6 0-61.7-3.4-64.1-3.6a2.05 2.05 0 0 1-1.8-2c0-.5 1.5-46.2 1.3-51.9v-6.2c.1-8.6.2-24.5-1.3-52.7v-.1l-.7-25.9c-.2-.8-.4-3 .8-4.6.5-.7 1.5-1.5 3.3-1.5h26c.2-.1.4-.1.7-.1.6 0 1.2.3 1.6.8.6.8 1 1.8 0 7.6-.2.9-.4 2.4-.8 4.2-2.6 13.5-9.6 49.5-11.2 90.6l-.7 21 41.2-9.5c.6-.2 1.2-.4 1.9-.4 3 0 3.6 3.4 3.8 4.7.5 3.2 4.1 23.2 4.5 25.3.2.7.3 1.7-.3 2.6-.7 1.1-2.2 1.7-4.2 1.7z"/><path d="M135.6 31c.3 0 .7.8-.2 6.1-1.3 7.5-10.1 48.1-12 95l-.8 23.5 43.7-10.1c.5-.2.9-.3 1.3-.3.9 0 1.5.7 1.9 3.1l4.5 25.5s.9 1.9-2.6 1.9-64-3.6-64-3.6l1.3-52c-.2-5.8.8-21.8-1.3-58.9l-.8-26.1s-.9-3.9 2.3-3.9h26.5c0 0 .1-.2.2-.2m0-3.8c-.3 0-.7 0-1 .1h-25.7c-2 0-3.7.8-4.8 2.2-1.7 2.1-1.4 4.8-1.2 5.9l.7 25.8v.1c1.6 28.1 1.4 44 1.3 52.6v6.3c.1 4.5-.8 35.8-1.3 51.8-.1 2.1 1.5 3.8 3.6 3.9l64.2 3.6c2.8 0 4.7-.9 5.8-2.6.9-1.4.8-2.9.5-4l-4.4-25.2c-.3-1.7-.7-2.9-1.3-3.9-1-1.5-2.5-2.4-4.3-2.4-.9 0-1.8.2-2.5.5-1.7.5-22.5 5.3-38.6 9l.6-18.5c1.6-41 8.6-76.8 11.2-90.3.4-1.9.6-3.3.8-4.2.4-2.2.6-3.9.6-5.1 0-1.3-.1-2.8-1.1-4-.8-1.1-1.9-1.6-3.1-1.6h0 0zm70.2 141c-5.4 0-10.7-2.2-17.4-5.8-5.9-3.2-10.1-9.2-12.3-18-1.7-6.6-1.9-13.5-1.6-17.8 1-12.8 1.3-43.9.6-52.8-.7-8.1-1.7-25.4-1.9-27.9-.2-.6-.4-1.7.2-2.8.4-.7 1.3-1.4 3-1.4.8 0 1.8.2 2.9.5 5.2 1.5 22.1 5.8 22.3 5.8.9.2 1.5 1.1 1.4 2-.1.5-5.1 52.4-5.1 59.3 0 1.3-.1 3.4-.3 6.1-.3 5.8-.9 14.7-.4 21.9.5 7.3 2 11.8 4.1 12 .4.1.9.1 1.3.1 6.8 0 10.9-7.9 13.1-24.9 2.4-18.7.2-37.3-6.1-74.5-.5-.9-.8-2.1-.2-3.3 1.1-2.3 4.4-2.6 5.5-2.6 5.3-.3 20.4-2 22.6-2.3.2-.1.5-.1.8-.1.7 0 1.4.3 1.8.9.7.9.9 2.2.6 4.3-.5 3.6-4.1 36.2-4.1 40.6 0 4.5-.9 33.9-1.1 38.4 0 .4-.4 8.8-2.8 17.9-2.8 10.5-6.9 17.4-12.4 20.2-5.9 2.9-10.3 4.2-14.5 4.2h0z"/><path d="M238.3 43.4c.4 0 1 .4.6 3-.6 3.8-4.1 36.4-4.1 40.9s-.9 34.2-1.1 38.3-2.4 30.3-14.2 36.5c-5.4 2.8-9.5 4.2-13.6 4.2-4.8 0-9.6-1.9-16.5-5.6-12.6-6.8-13.5-26.7-13-34 1-13.1 1.3-44.3.6-53.1l-2-28.2s-1-1.9 1.3-1.9c.6 0 1.4.1 2.4.4 5.3 1.5 22.3 5.8 22.3 5.8l-5.1 59.5c0 7.1-3.9 40.7 5.1 41.9.5.1 1 .1 1.5.1 8.1 0 12.7-8.7 15-26.6 2.4-19 .2-37.7-6.2-75.5 0 0-2.3-3 3.6-3.4 5.8-.4 22.9-2.3 22.9-2.3h.5m0-3.8c-.4 0-.8.1-1.2.2L214.8 42c-1.7.1-3 .4-4.1.9-1.8.8-2.6 2-3 2.8-.8 1.7-.5 3.4.1 4.7 6.2 36.8 8.4 55.3 6.1 73.7-1.1 8.5-2.7 14.8-4.9 18.6-2.3 4.1-4.6 4.6-6.4 4.6-.3 0-.6 0-1-.1-.3-.2-2.1-2-2.6-11.7-.3-6.8.1-14.6.5-20.2.2-2.7.3-4.8.3-6.2 0-5.5 3.3-41.1 5.1-59.1.2-1.9-1-3.6-2.8-4-.2 0-17.1-4.3-22.2-5.8-1.3-.4-2.5-.6-3.5-.6-2.8 0-4.1 1.5-4.6 2.3-.8 1.4-.8 2.9-.5 4.1l1.9 27.7c.8 8.8.4 39.7-.6 52.5-.3 4.4-.1 11.6 1.7 18.4 1.1 4.1 2.6 7.7 4.5 10.7 2.3 3.7 5.3 6.6 8.8 8.5 6.9 3.7 12.4 6 18.3 6 4.6 0 9.2-1.4 15.4-4.6 6-3.1 10.5-10.3 13.4-21.4 2.4-9.3 2.9-17.9 2.9-18.3.2-3.8 1.1-33.7 1.1-38.5 0-4.2 3.6-36.9 4.1-40.4.3-1.8.4-4.1-1.1-5.8-1-.7-2.2-1.2-3.4-1.2h0 0zm256.3 128.9c-5.3 0-10.6-1.9-17.2-6.3-5.7-3.7-9.8-9.8-11.9-17.6-2.2-8.3-1.4-15.6-1-18.3 3.3-20.2 1.3-43.8.5-52.7-.7-8.1-1.7-25.4-1.9-27.9-.2-.6-.4-1.7.2-2.8.4-.7 1.3-1.4 3-1.4.8 0 1.8.2 2.9.5 5.2 1.5 22.1 5.8 22.3 5.8.9.2 1.5 1.1 1.4 2-.1.5-5.1 52.4-5.1 59.3 0 1.3-.1 3.4-.3 6.1-.3 5.8-.9 14.7-.4 21.9.5 7.3 2 11.8 4.1 12 .4.1.9.1 1.3.1 6.8 0 10.9-7.9 13.1-24.9 2.4-18.7.2-37.3-6.1-74.5-.5-.9-.8-2.1-.2-3.3 1.1-2.3 4.4-2.6 5.5-2.6 5.3-.3 20.4-2 22.6-2.3.2-.1.5-.1.8-.1.7 0 1.4.3 1.8.9.7.9.9 2.2.6 4.3-.5 3.6-4.1 36.2-4.1 40.6 0 4.5-.9 33.9-1.1 38.4 0 .4-.4 8.8-2.8 17.9-2.8 10.5-6.9 17.4-12.4 20.2-6.3 3.3-11 4.7-15.6 4.7z"/><path d="M528.3 43.4c.4 0 1 .4.6 3-.6 3.8-4.1 36.4-4.1 40.9s-.9 34.2-1.1 38.3-2.4 30.3-14.2 36.5c-5.7 3-10.3 4.6-14.8 4.6-5 0-9.9-1.9-16.2-6-12.1-7.9-13.5-24.7-12-34 3.3-20.4 1.3-44.3.6-53.1-.8-8.8-1.9-28.2-1.9-28.2s-1-1.9 1.3-1.9c.6 0 1.4.1 2.4.4 5.3 1.5 22.3 5.8 22.3 5.8l-5.1 59.5c0 7.1-3.9 40.7 5.1 41.9.5.1 1 .1 1.5.1 8.1 0 12.7-8.7 15-26.6 2.4-19 .2-37.7-6.2-75.5 0 0-2.3-3 3.6-3.4 5.8-.4 22.9-2.3 22.9-2.3h.3m0-3.8c-.4 0-.8.1-1.2.2L504.8 42c-1.7.1-3 .4-4.1.9-1.8.8-2.6 2-3 2.8-.8 1.7-.5 3.4.1 4.7 6.2 36.8 8.4 55.3 6.1 73.7-1.1 8.5-2.7 14.8-4.9 18.6-2.3 4.1-4.6 4.6-6.4 4.6-.3 0-.6 0-1-.1-.3-.2-2.1-2-2.6-11.7-.3-6.8.1-14.6.5-20.2.2-2.7.3-4.8.3-6.2 0-5.5 3.3-41.1 5.1-59.1.2-1.9-1-3.6-2.8-4-.2 0-17.1-4.3-22.2-5.8-1.3-.4-2.5-.6-3.5-.6-2.8 0-4.1 1.5-4.6 2.3-.8 1.4-.8 2.9-.5 4.1l1.9 27.7c.7 8.8 2.7 32.2-.5 52.2-.5 2.9-1.3 10.4 1 19.1 2.2 8.2 6.6 14.7 12.7 18.7 7 4.5 12.6 6.6 18.3 6.6 5 0 9.9-1.5 16.6-5 6-3.1 10.5-10.3 13.4-21.4 2.4-9.3 2.9-17.9 2.9-18.3.2-4.5 1.1-34 1.1-38.5 0-4.2 3.6-36.9 4.1-40.4.3-1.8.4-4.1-1.1-5.8-.9-.8-2.1-1.3-3.4-1.3zM278.1 180.2h-1.2-2.9c-.7 0-1.4-.1-2.4-.2-.4-.1-.9-.1-1.3-.1l-2.8-.4c-3.2-.6-6.3-1.4-9.3-2.4-.3-.1-.5-.2-.7-.4-.1 0-.2-.1-.3-.1-.6-.3-1-1-1-1.6v-.7-1.3-3.3l.1-9.5.2-9.5.1-2.4.2-5.2.1-2.6V139v-1.6l.3-8.8v-1.5c0-.6 0-1.2.1-1.8l.1-4.2.1-4v-1.6c0-.6 0-1.1.1-1.7l.2-5.9.1-1.8v-.8-1.2l.1-3 .2-7.2.1-7.8.1-3.7v-2.1l.1-8.1c.1-3.6-.1-7.1-.3-10-.2-3.6-.6-6.8-1.2-9.9-.1-.3-.1-.5-.1-.8s-.1-.5-.1-.8c-.5-2 .3-3.2 2.3-3.8 3.2-.9 6.2-1.6 9.2-1.9 2.5-.3 4.9-.5 7.2-.5 1.6 0 3.2.1 4.7.2 7.9.8 14.3 4.2 19 10 2.8 3.4 4.8 7.3 6.1 12 .9 3.2 1.4 6.5 1.7 10.1.2 3.7.2 7.6-.1 12.3-.4 5.3-1.2 9.9-2.6 14.1-1.3 3.8-3 7.3-5.3 10.2a33.28 33.28 0 0 1-3.6 3.9c1 .6 2 1.5 2.9 2.6.8 1.1 1.6 2.3 2.3 3.8.9 1.8 1.6 3.9 2.3 6.3.8 3 1.5 6.1 2 9.3.6 4.2.9 8.3.9 12.5 0 2.8-.4 5.6-1.2 8.3-1.1 3.8-3 7.2-5.5 10.1-3.9 4.4-8.7 7.5-14.3 9-2.4.7-4.6 1-6.7 1h0 0zm-.2-31c0 1-.1 2-.1 3v1.2c0 .8 0 1.6-.1 2.4-.2 1.7-.2 3.5-.3 5.3 0 .6 0 1.3-.1 1.9 1 0 2.1-.2 3.4-.5.6-.1 1.1-.3 1.6-.6a4.1 4.1 0 0 0 1.6-1.6c.3-.6.6-1.3.8-2.2.4-1.5.7-3.1 1-5.1.4-3 .6-6 .8-9.5V142c0-.8-.1-1.5-.3-2.3-.6-2.6-2-4.5-4.3-5.9-1-.6-2.1-1-3.2-1.4-.1.9-.1 1.9-.2 2.8l-.4 8.5c0 1.2-.1 2.3-.1 3.5v.4.2c0 .1 0 .3-.1.4v1h0zm-1.7-67.4v.4 4.5l.1 11.3c0 1.5 0 3.1.1 4.8 1.7-1.2 3.2-2.4 4.5-3.8 2.3-2.5 3.7-5.2 4.2-8.3.5-2.5.8-5.1.9-8.1.2-3.3.2-6.5.3-10.3 0-1.8-.1-3.2-.5-4.6-.8-3.1-2.5-5.2-5.3-6.4-1.5-.6-3-1-4.6-1v.6l.2 17 .1 3.9h0z"/><path d="M275.6 46.5l4.5.2c7.1.8 13.2 3.7 17.8 9.3 2.7 3.3 4.6 7.2 5.7 11.3.9 3.2 1.4 6.4 1.6 9.7.3 4 .2 8-.1 12-.3 4.6-1 9.2-2.5 13.6-1.1 3.5-2.8 6.7-5 9.7-1.2 1.5-2.5 3-4 4.2-.4.3-.8.6-1.1 1-.1.1-.1.3-.2.5.2.1.3.2.5.2 1.7.5 3 1.6 4.1 2.9.8 1.1 1.5 2.2 2.1 3.4.9 1.9 1.6 3.9 2.2 6 .8 3 1.5 6 1.9 9.1.6 4 .9 8.1.9 12.2 0 2.6-.4 5.2-1.1 7.7-1 3.5-2.7 6.6-5.1 9.4-3.6 4.1-8.1 7-13.4 8.5-2 .6-4.1.9-6.2.9h-.1-4c-.7 0-1.5-.1-2.2-.2-1.3-.2-2.7-.3-4-.5-3.1-.5-6-1.3-9-2.3l-.8-.4V173l.1-12.8.3-11.9.2-7.8c0-1 .1-2.1.1-3.1l.3-8.8c0-1.1.1-2.2.1-3.3l.3-8.2c0-1.1.1-2.2.1-3.3l.3-7.7c0-.7.1-1.3.1-2l.3-10.2.2-11.5.2-10.2c.1-3.4-.1-6.8-.3-10.2s-.6-6.8-1.2-10.1c-.1-.5-.1-1.1-.3-1.6-.2-.9-.2-1.2 1-1.5 2.9-.8 5.9-1.5 8.9-1.9 2.1-.3 4.5-.4 6.8-.4m-1.3 35.7l.2 15.9.1 6.6c0 .4.1.7.2 1.1 0 .1.2.1.3.1.2 0 .4-.1.5-.2 2.5-1.5 4.8-3.2 6.7-5.3 2.5-2.6 4.1-5.7 4.7-9.3.5-2.8.8-5.5.9-8.3.2-3.5.2-6.9.3-10.4 0-1.7-.1-3.4-.5-5.1-.9-3.6-3-6.2-6.4-7.7-1.9-.8-3.8-1.2-5.8-1.2h-.7c-.4 0-.6.3-.7.7v1.8l.2 21.3m1.8 65.6c-.1 1.5-.2 2.9-.2 4.4 0 1.2 0 2.3-.1 3.5-.2 2.7-.2 5.3-.3 8 0 .2 0 .5.1.7 0 .2.2.3.3.4s.2.1.3.1h.8c1.4 0 2.8-.2 4.2-.6.7-.2 1.4-.4 2-.7 1.1-.5 1.9-1.3 2.4-2.4.4-.8.7-1.7 1-2.6.5-1.8.8-3.6 1-5.4.4-3.2.6-6.4.8-9.6V142c0-.9-.1-1.8-.3-2.7-.7-3.1-2.5-5.5-5.3-7.1-1.6-.9-3.4-1.6-5.3-1.9h-.1c-.3 0-.5.2-.5.4v.1l-.3 4.5-.5 12a.45.45 0 0 1 0 .5m-.5-105.1v3.8-3.8c-2.4 0-4.8.2-7.5.5-3 .4-6.1 1-9.4 2-.6.2-2.3.7-3.2 2.3s-.5 3.2-.4 3.8c0 .1.1.3.1.5 0 .3.1.5.1.9.6 3 1 6.2 1.2 9.7.2 2.9.4 6.4.3 9.9-.1 2.7-.1 5.4-.1 8v2.2c0 1.2 0 2.5-.1 3.7l-.1 7.8-.2 7.2c0 1-.1 2-.1 3v1.2.8l-.1 1.9c-.1 1.9-.1 3.9-.2 5.8 0 .6 0 1.2-.1 1.7v1.6c0 1.3-.1 2.7-.1 4 0 1.4-.1 2.8-.1 4.2 0 .6 0 1.2-.1 1.8v1.5c0 1.6-.1 3.2-.2 4.8 0 1.3-.1 2.7-.1 4v1.6 1.5c0 .9-.1 1.7-.1 2.6-.1 1.7-.1 3.5-.2 5.2 0 .8 0 1.6-.1 2.4l-.2 9.5-.1 9.5v3.3 1.4.6c0 1.4.8 2.7 2.1 3.3.1 0 .1.1.2.1l1 .5c3 1.1 6.2 1.9 9.6 2.5 1 .2 2 .3 2.9.4.4 0 .9.1 1.3.1 1 .1 1.8.2 2.6.2h2.9 1.2.1c2.2 0 4.6-.4 7.2-1.1 5.9-1.7 11-4.9 15.2-9.6 2.7-3.1 4.7-6.7 5.9-10.8.8-2.8 1.2-5.8 1.2-8.8 0-4.2-.3-8.5-1-12.7-.5-3.3-1.2-6.5-2-9.5-.7-2.5-1.5-4.7-2.4-6.6-.8-1.6-1.6-3-2.5-4.1-.5-.6-1-1.1-1.5-1.6.8-.8 1.5-1.7 2.2-2.6 2.4-3.1 4.3-6.8 5.6-10.8 1.4-4.3 2.3-9.1 2.7-14.5.3-4.7.4-8.7.1-12.5-.2-3.6-.8-7.1-1.7-10.5-1.4-4.9-3.5-9.1-6.4-12.7-5.1-6.2-11.9-9.8-20.3-10.7-1.8-.3-3.5-.4-5.1-.4h0 0zm2.3 16.6h0 0 0zm.2 22.3v-3.9l-.2-15.1c.7.1 1.3.4 2 .6 2.2.9 3.6 2.6 4.2 5.1.3 1.2.4 2.5.4 4.1 0 3.8-.1 7-.3 10.2-.2 2.9-.4 5.4-.9 7.8-.5 2.8-1.7 5.2-3.8 7.4l-1.2 1.2v-1l-.1-11.3v-4.6c0-.1-.1-.3-.1-.5zm1.8 67c0-.2.1-.4.1-.5v-.2-.4c0-1.2.1-2.3.1-3.5l.4-8.5v-.2l.6.3c1.9 1.1 3 2.5 3.4 4.6.1.7.2 1.3.2 1.9v1.4c-.2 3.5-.4 6.4-.8 9.3-.2 1.9-.5 3.4-.9 4.8-.2.8-.5 1.4-.7 1.9-.2.3-.4.5-.7.7-.4.2-.8.3-1.2.4s-.7.2-1.1.2c0-1.7.1-3.3.2-4.9.1-.9.1-1.7.1-2.5v-1.1c0-1 .1-2 .1-3 .1-.2.1-.5.2-.7h0 0zm288.3 31.9H567h-2.9c-.7 0-1.4-.1-2.4-.2-.4-.1-.9-.1-1.3-.1l-2.8-.4c-3.2-.6-6.3-1.4-9.3-2.4-.3-.1-.5-.2-.7-.4-.1 0-.2-.1-.3-.1-.6-.3-1-1-1-1.6v-.7-1.3-3.3l.1-9.5.2-9.5.1-2.4.2-5.2.1-2.6v-1.5-1.6l.3-8.8v-1.5c0-.6 0-1.2.1-1.8l.1-4.1.1-4.1v-1.6c0-.6 0-1.1.1-1.7l.2-5.9.1-1.8v-.8-1.2l.1-3 .2-7.2.1-7.8.1-3.7v-2.2l.1-8c.1-3.6-.1-7.1-.3-10-.2-3.6-.6-6.8-1.2-9.9-.1-.3-.1-.5-.1-.8s-.1-.5-.1-.8c-.5-2 .3-3.2 2.3-3.8 3.2-.9 6.2-1.6 9.2-1.9 2.5-.3 4.9-.5 7.2-.5 1.6 0 3.2.1 4.7.2 7.9.8 14.3 4.2 19 10 2.8 3.4 4.8 7.3 6.1 12 .9 3.2 1.4 6.5 1.7 10.1.2 3.7.2 7.6-.1 12.3-.4 5.3-1.2 9.9-2.6 14.1-1.3 3.8-3 7.3-5.3 10.2a33.28 33.28 0 0 1-3.6 3.9c1 .6 2 1.5 2.9 2.6.8 1.1 1.6 2.3 2.3 3.8.9 1.8 1.6 3.9 2.3 6.3.8 3 1.5 6.1 2 9.3.6 4.2.9 8.3.9 12.5 0 2.8-.4 5.6-1.2 8.3-1.1 3.8-3 7.2-5.5 10.1-3.9 4.4-8.7 7.5-14.3 9-2.4.7-4.6 1-6.7 1h0 0zm-.2-31c0 1-.1 2-.1 3v1.2c0 .8 0 1.6-.1 2.4-.2 1.7-.2 3.5-.3 5.3 0 .6 0 1.3-.1 1.9 1 0 2.1-.2 3.4-.5.6-.1 1.1-.3 1.6-.6a4.1 4.1 0 0 0 1.6-1.6c.3-.6.6-1.3.8-2.2.4-1.5.7-3.1 1-5.1.4-3 .6-6 .8-9.5v-1.5c0-.8-.1-1.5-.3-2.3-.6-2.6-2-4.5-4.3-5.9-1-.6-2.1-1-3.2-1.4-.1.9-.1 1.9-.2 2.8l-.4 8.5c0 1.2-.1 2.3-.1 3.5v.4.2c0 .1 0 .3-.1.4v1h0zm-1.7-67.4v.4 4.6l.1 11.2c0 1.5 0 3.1.1 4.8 1.7-1.2 3.2-2.4 4.5-3.8 2.3-2.5 3.7-5.2 4.2-8.3.5-2.5.8-5.1.9-8.1.2-3.3.2-6.5.3-10.3 0-1.8-.1-3.2-.5-4.6-.8-3.1-2.5-5.2-5.3-6.4-1.5-.6-3-1-4.6-1v.6l.2 16.4c0 0 .1 4.5.1 4.5z"/><path d="M565.7 46.8l4.5.2c7.1.8 13.2 3.7 17.8 9.3 2.7 3.3 4.6 7.2 5.7 11.3.9 3.2 1.4 6.4 1.6 9.7.3 4 .2 8-.1 12-.3 4.6-1 9.2-2.5 13.6-1.1 3.5-2.8 6.7-5 9.7-1.2 1.5-2.5 3-4 4.2-.4.3-.8.6-1.1 1-.1.1-.1.3-.2.5.2.1.3.2.5.2 1.7.5 3 1.6 4.1 2.9.8 1.1 1.5 2.2 2.1 3.4.9 1.9 1.6 3.9 2.2 6 .8 3 1.5 6 1.9 9.1.6 4 .9 8.1.9 12.2 0 2.6-.4 5.2-1.1 7.7-1 3.5-2.7 6.6-5.1 9.4-3.6 4.1-8.1 7-13.4 8.5-2 .6-4.1.9-6.2.9h-.1-4c-.7 0-1.5-.1-2.2-.2-1.3-.2-2.7-.3-4-.5-3.1-.5-6-1.3-9-2.3l-.8-.4v-1.9l.1-12.8.3-11.9.2-7.8c0-1 .1-2.1.1-3.1l.3-8.8c0-1.1.1-2.2.1-3.3l.3-8.2c0-1.1.1-2.2.1-3.3l.3-7.7c0-.7.1-1.3.1-2l.3-10.2.2-11.5.2-10.2c.1-3.4-.1-6.8-.3-10.2s-.6-6.8-1.2-10.1c-.1-.5-.1-1.1-.3-1.6-.2-.9-.2-1.2 1-1.5 2.9-.8 5.9-1.5 8.9-1.9 2.1-.2 4.5-.4 6.8-.4m-1.3 35.7l.2 15.9.1 6.6c0 .4.1.7.2 1.1 0 .1.2.1.3.1.2 0 .4-.1.5-.2 2.5-1.5 4.8-3.2 6.7-5.3 2.5-2.6 4.1-5.7 4.7-9.3.5-2.8.8-5.5.9-8.3.2-3.5.2-6.9.3-10.4 0-1.7-.1-3.4-.5-5.1-.9-3.6-3-6.2-6.4-7.7-1.9-.8-3.8-1.2-5.8-1.2h-.7c-.4 0-.6.3-.7.7v1.8l.2 21.3m1.8 65.6c-.1 1.5-.2 2.9-.2 4.4 0 1.2 0 2.3-.1 3.5-.2 2.7-.2 5.3-.3 8 0 .2 0 .5.1.7 0 .2.2.3.3.4s.2.1.3.1h.8c1.4 0 2.8-.2 4.2-.6.7-.2 1.4-.4 2-.7 1.1-.5 1.9-1.3 2.4-2.4.4-.8.7-1.7 1-2.6.5-1.8.8-3.6 1-5.4.4-3.2.6-6.4.8-9.6v-1.6c0-.9-.1-1.8-.3-2.7-.7-3.1-2.5-5.5-5.3-7.1-1.6-.9-3.4-1.6-5.3-1.9h-.1c-.3 0-.5.2-.5.4v.1l-.3 4.5-.5 12c.1.2 0 .4 0 .5M565.7 43c-2.4 0-4.8.2-7.5.5-3 .4-6.1 1-9.4 2-.6.2-2.3.7-3.2 2.3s-.5 3.2-.4 3.8c0 .1.1.3.1.5 0 .3.1.5.1.9.6 3 1 6.2 1.2 9.7.2 2.9.4 6.4.3 9.9-.1 2.7-.1 5.4-.1 8.1v2.2c0 1.2 0 2.5-.1 3.7l-.1 7.8-.2 7.2c0 1-.1 2-.1 3v1.2.8l-.1 1.8c-.1 1.9-.1 3.9-.2 5.8 0 .6 0 1.2-.1 1.7v1.6c0 1.3-.1 2.7-.1 4 0 1.4-.1 2.8-.1 4.2 0 .6 0 1.2-.1 1.8v1.5c0 1.6-.1 3.2-.2 4.8 0 1.3-.1 2.7-.1 4v1.6 1.5c0 .9-.1 1.7-.1 2.6-.1 1.7-.1 3.5-.2 5.2 0 .8 0 1.6-.1 2.4l-.2 9.5-.1 9.5v3.3 1.4.6c0 1.4.8 2.7 2.1 3.3.1 0 .1.1.2.1l1 .5c3 1.1 6.2 1.9 9.6 2.5 1 .2 2 .3 2.9.4.4 0 .9.1 1.3.1 1 .1 1.8.2 2.6.2h2.9 1.2.1c2.2 0 4.6-.4 7.2-1.1 5.9-1.7 11-4.9 15.2-9.6 2.7-3.1 4.7-6.7 5.9-10.8.8-2.8 1.2-5.8 1.2-8.8 0-4.2-.3-8.5-1-12.7-.5-3.3-1.2-6.5-2-9.5-.7-2.5-1.5-4.7-2.4-6.6-.8-1.6-1.6-3-2.5-4.1-.5-.6-1-1.1-1.5-1.6.8-.8 1.5-1.7 2.2-2.6 2.4-3.1 4.3-6.8 5.6-10.8 1.4-4.3 2.3-9.1 2.7-14.5.3-4.7.4-8.7.1-12.5-.2-3.6-.8-7.1-1.7-10.5-1.4-4.9-3.5-9.1-6.4-12.7-5.1-6.2-11.9-9.8-20.3-10.7-1.8-.3-3.5-.4-5.1-.4h0 0zm2.3 16.7h0 0 0zm.2 22.2l-.1-4.1-.2-15c.7.1 1.3.4 2 .6 2.2.9 3.6 2.6 4.2 5.1.3 1.2.4 2.5.4 4.1 0 3.8-.1 7-.3 10.2-.2 2.9-.4 5.4-.9 7.8-.5 2.8-1.7 5.2-3.8 7.4l-1.2 1.2v-1l-.1-11.3v-4.6-.4h0 0zm1.8 67c0-.2.1-.4.1-.5v-.2-.4c0-1.2.1-2.3.1-3.5l.4-8.5v-.2l.6.3c1.9 1.1 3 2.5 3.4 4.6.1.7.2 1.3.2 1.9v1.4c-.2 3.5-.4 6.4-.8 9.3-.2 1.9-.5 3.4-.9 4.8-.2.8-.5 1.4-.7 1.9-.2.3-.4.5-.7.7-.4.2-.8.3-1.2.4s-.7.2-1.1.2c0-1.7.1-3.3.2-4.9.1-.9.1-1.7.1-2.5v-1.1c0-1 .1-2 .1-3 .1-.2.1-.5.2-.7h0 0zM45.4 181.8c-4.8 0-9.4-1.5-13.7-4.4-2.3-1.6-4.4-3.6-6.5-6.1-1.8-2.1-3.4-4.5-5-7.3-2.4-4.3-4.6-9.1-6.6-14.8-1.8-5.2-3.2-10.6-4.2-16-.5-2.6-.8-5.1-1.1-7.5-.1-.9-.2-1.8-.2-2.7 0-1-.1-2-.3-3-.1-.4-.1-.8-.1-1.1v-.2c-.2-5.5-.1-10.9 0-17.4 0-.4 0-.8.1-1.2v-.4c0-.3 0-.6.1-.8 0-.6.1-1.1.1-1.6.1-1.2.2-2.5.2-3.7V93l.3-2.6.3-2.8c.1-1.2.2-2.3.4-3.4 1.1-7.2 2.2-12.6 3.6-17.5 1.8-6.1 3.9-11.3 6.4-15.9 2.3-4.2 5-7.7 8-10.6 3.9-3.8 8.4-6.4 13.3-7.9 3.1-.9 5.8-1.4 8.4-1.4h1 1.7 1.1c7.1.2 13.3 2.8 18.6 7.9 2.3 2.2 4.4 4.9 6.4 8.1 2.7 4.5 4.8 9.5 6.1 14.8.6 2.2 1 4.5 1.3 6.8.3 2.7.7 5.8.6 9 0 .3 0 .7-.1.9v.1c-.1 1-.9 1.9-2 2.2-.1 0-.2 0-.3.1-.2 0-.5.1-.7.1-.6.1-1.2.2-1.8.2-1 .1-2.1.2-3.3.4-.7.1-1.5.2-2.2.2-.8.1-1.6.1-2.3.3-.7.1-1.4.2-2.1.2-.8.1-1.6.1-2.3.3-.4.1-.7.1-.9.1h-.3c-1.7 0-3.1-1.3-3.2-3v-1.4-.2-2.6-4.9a37.08 37.08 0 0 0-.3-4.7c-.1-.5-.1-1-.1-1.6l-.3-2.9c-.5-3.6-1.1-6.4-2.1-8.8-.5-1.4-1.1-2.6-1.9-3.7-1.7-2.5-4-4-7-4.6-.2 0-.5-.1-.8-.1H50h-.8c-2.1 0-4.1.7-6.1 2.2-.9.6-1.7 1.4-2.4 2.3-1.2 1.4-2.2 3.1-3.1 5-1.1 2.3-2 4.9-2.8 7.9-.8 3.1-1.4 6-1.8 8.9-.1.3-.1.7-.2 1-.2 1.5-.4 2.8-.5 4.3-.1 1.2-.2 2.5-.4 3.7.1.6 0 1.1 0 1.6v.1.1c0 1.4-.1 2.7-.2 4-.1 1.5-.2 3-.2 4.5 0 .8 0 1.6-.1 2.3 0 .3 0 .7-.1 1v.5c0 .5-.1 1-.1 1.4 0 1.8-.1 3.7-.1 5.6v2.4 3.3l.1 9.2c0 .9.1 1.8.1 2.7 0 .5.1.9.1 1.4 0 .6.1 1.2.1 1.9v.6c0 1.5.1 3 .3 4.5.1.4.1.9.1 1.2v.5c.1.7.1 1.4.2 2.1v.4.1c0 .1.1.3.1.6.1 2.3.4 4.6.7 6.8l.1.6c.9 6.3 2 11.2 3.5 15.6.6 1.6 1.2 3.1 1.8 4.3.7 1.3 1.3 2.4 2.1 3.4.5.6 1 1.2 1.6 1.6a5.43 5.43 0 0 0 3.4 1.2c1.3 0 2.3-.1 3.2-.3 2.4-.5 4.5-1.7 6.4-3.5 1.2-1.1 2.2-2.4 3.2-4 1.6-2.5 2.9-5.5 4-9 .6-1.9 1.1-3.9 1.5-6.3.6-3.3.8-6.9.7-11.3v-2.1c.1-1.5 1.3-2.9 2.8-3h0 .5.1.3a17.33 17.33 0 0 0 3.2-.3c.5-.1 1-.1 1.4-.2 1.2-.1 2.4-.3 3.6-.6.4-.1.8-.2 1.3-.2.9-.2 1.7-.3 2.6-.5l1.7-.3c.3-.1.5-.1.8-.1.9 0 1.7.3 2.3.9.7.7 1.1 1.5 1.1 2.3v.3c0 1 0 2.1-.1 3.2 0 .3 0 .6-.1.9 0 .3-.1.6-.1.8 0 2.6-.3 5.1-.5 6.9-.9 7.5-2.5 13.6-4.8 19.2-1.9 4.4-4.1 8.1-6.8 11.4-4.9 5.8-11 9.6-18.4 11.4-3.5 1.2-7.1 1.3-9.9 1.3h0 0z"/><path d="M51.7 32.5h1c6.8.2 12.5 2.7 17.4 7.3 2.4 2.3 4.4 4.9 6.1 7.7 2.7 4.5 4.6 9.2 5.8 14.3.5 2.2.9 4.4 1.2 6.6.3 2.9.6 5.8.6 8.7 0 .3 0 .6-.1.9 0 .2-.3.4-.5.5H83c-.8.1-1.6.3-2.3.3-1.2.1-2.3.2-3.4.4-1.5.2-3 .2-4.5.5s-3 .2-4.5.6h-.5-.2c-.7 0-1.3-.6-1.3-1.2v-1.5-7.5a40.28 40.28 0 0 0-.3-4.9c-.2-1.5-.3-3-.5-4.5-.4-3.1-1-6.2-2.2-9.2-.5-1.4-1.2-2.8-2.1-4.1-2-2.9-4.7-4.7-8.2-5.3-.4-.1-.7-.1-1.1-.1h-2.4-.1c-2.7 0-5.1 1-7.3 2.6-1 .8-1.9 1.7-2.7 2.7-1.3 1.7-2.4 3.5-3.4 5.4-1.3 2.6-2.2 5.4-3 8.2-.8 3-1.4 6-1.9 9.1-.3 1.8-.6 3.6-.7 5.4s-.4 3.5-.6 5.3v.4c-.1 2.9-.5 5.7-.5 8.6 0 1.1-.1 2.2-.2 3.3 0 .7-.1 1.3-.1 2l-.1 8.1.1 12.6c0 1.4.1 2.8.2 4.2 0 .6.1 1.2.1 1.8 0 1.8 0 3.5.3 5.3.1.5 0 1.1.1 1.6.1.8.1 1.7.2 2.5 0 .2.1.4.1.5.1 2.6.5 5.1.8 7.6.8 5.4 1.8 10.8 3.6 16 .5 1.6 1.1 3.1 1.9 4.5.7 1.3 1.4 2.6 2.3 3.7.6.7 1.2 1.4 1.9 1.9 1.3 1.1 2.8 1.7 4.5 1.7 1.2 0 2.4-.1 3.6-.3 2.8-.6 5.2-2 7.3-3.9 1.4-1.3 2.5-2.8 3.5-4.4 1.9-2.9 3.2-6.1 4.2-9.5.7-2.1 1.2-4.4 1.5-6.6.7-3.9.8-7.7.7-11.6v-2c0-.6.6-1.2 1.2-1.2h.3.4c1.6 0 3.3-.3 4.9-.4 1.7-.2 3.4-.5 5-.9 1.4-.3 2.9-.6 4.3-.8h.4c.3 0 .7.1 1 .4s.5.6.5.9c0 1.2 0 2.3-.1 3.5 0 .6-.1 1.2-.1 1.8 0 2.3-.2 4.5-.5 6.7-.8 6.4-2.1 12.7-4.7 18.7-1.7 3.9-3.8 7.6-6.5 10.9-4.6 5.5-10.4 9.1-17.4 10.8-3.1.7-6.2.9-9.4.9-4.7 0-8.8-1.5-12.6-4.1-2.3-1.6-4.3-3.6-6.1-5.7-1.8-2.2-3.4-4.6-4.8-7.1-2.6-4.6-4.7-9.5-6.4-14.5-1.8-5.1-3.2-10.3-4.1-15.7-.4-2.5-.8-4.9-1.1-7.4-.3-1.9-.2-3.9-.6-5.8-.1-.4 0-.7-.1-1.1-.2-5.8-.1-11.6 0-17.3 0-.5.1-1 .1-1.5.1-.8.1-1.7.2-2.5l.3-4.2c.1-1.8.4-3.6.5-5.4.1-1.1.2-2.2.4-3.3.9-5.8 1.9-11.6 3.6-17.3 1.6-5.4 3.5-10.6 6.3-15.5 2.1-3.7 4.6-7.2 7.6-10.2 3.6-3.5 7.8-6 12.6-7.5 2.6-.8 5.2-1.3 7.9-1.3 1.2-.1 2.1-.1 2.9-.1m0-3.8H50h-1c-2.8 0-5.7.5-8.9 1.5-5.3 1.6-10 4.4-14.1 8.4-3.2 3.1-5.9 6.7-8.3 11.1-2.6 4.7-4.8 10-6.6 16.3-1.5 5.1-2.6 10.5-3.7 17.8-.2 1.1-.3 2.3-.4 3.6l-.3 2.7-.3 2.7v.6c-.1 1.2-.2 2.5-.2 3.8 0 .5-.1 1-.1 1.6 0 .3 0 .6-.1.9v.4c0 .4-.1.8-.1 1.3-.1 6.5-.2 12 0 17.5v.2c0 .4 0 .8.1 1.4.2.9.2 1.9.3 2.9.1.9.1 1.8.3 2.8.3 2.4.7 5 1.1 7.6 1 5.5 2.4 10.9 4.3 16.3 2 5.8 4.2 10.7 6.7 15.1 1.7 2.9 3.4 5.4 5.2 7.6 2.2 2.7 4.4 4.8 6.9 6.4 4.6 3.2 9.5 4.8 14.7 4.8h0c2.8 0 6.5-.1 10.3-1 7.7-1.8 14.3-5.9 19.4-12 2.8-3.4 5.2-7.3 7.1-11.8 2.4-5.7 4.1-12.1 5-19.7.2-1.9.5-4.5.5-7.2v-.7c0-.3.1-.7.1-1 0-1.1.1-2.1.1-3.2v-.3c0-1-.3-2.4-1.6-3.7-1-.9-2.2-1.4-3.6-1.4-.4 0-.7 0-1.1.1l-1.7.3c-.8.2-1.7.3-2.6.5-.4.1-.9.2-1.3.2-1.2.2-2.3.5-3.4.6-.5 0-1 .1-1.5.2-1.1.1-2.1.2-3 .2h-.3-.1-.7 0c-2.4.3-4.4 2.4-4.5 4.9v2.2c.1 4.3-.1 7.8-.7 10.9-.4 2.3-.9 4.3-1.4 6.1-1.1 3.4-2.3 6.2-3.8 8.6-.9 1.5-1.9 2.7-2.9 3.7-1.7 1.6-3.5 2.5-5.5 3-.8.2-1.7.3-2.8.3-.8 0-1.5-.3-2.2-.8-.5-.4-.9-.8-1.3-1.3-.7-.8-1.3-1.8-1.9-3s-1.1-2.5-1.7-4.1c-1.5-4.3-2.6-9-3.4-15.3l-.1-.6c-.3-2.3-.6-4.5-.7-6.6 0-.4-.1-.7-.1-.8v-.3c-.1-.7-.1-1.4-.2-2.1v-.4c0-.4 0-.9-.1-1.5-.2-1.3-.2-2.7-.3-4.2v-.6c0-.7 0-1.3-.1-1.9 0-.5-.1-1-.1-1.4-.1-.9-.1-1.8-.1-2.6l-.1-9.2v-3.3-2.3c0-2 .1-3.8.1-5.7 0-.4 0-.9.1-1.3V94c0-.3 0-.7.1-1 .1-.8.1-1.6.1-2.5 0-1.4.1-2.8.2-4.3.1-1.3.2-2.7.2-4v-.1c.1-.5.1-1.1.2-1.6.1-1.2.3-2.5.4-3.8s.3-2.7.5-4.1c.1-.4.1-.7.2-1.1.4-2.8 1-5.6 1.8-8.7.8-2.9 1.7-5.3 2.7-7.6.9-1.8 1.8-3.3 2.9-4.7.7-.8 1.3-1.5 2.1-2 1.7-1.3 3.3-1.8 5-1.8h.1.7 1.6.5c2.5.5 4.4 1.7 5.8 3.8.6.9 1.2 2 1.6 3.3.9 2.3 1.5 4.9 2 8.4l.3 2.8c0 .5.1 1 .2 1.6.2 1.5.2 3.1.2 4.5V76v2.6.2 1.5c.1 2.6 2.5 4.8 5.1 4.8h0 0 .1.1c.4 0 .8 0 1.4-.2.6-.1 1.3-.2 2-.3s1.4-.1 2.2-.3c.6-.1 1.4-.2 2.1-.2.7-.1 1.5-.1 2.3-.2 1.2-.2 2.2-.3 3.2-.4.7-.1 1.3-.2 1.9-.3.2 0 .4-.1.7-.1.2 0 .4-.1.5-.1 1.8-.4 3.3-2 3.4-3.8v-.1c0-.3.1-.7.1-1.1 0-3.3-.3-6.5-.6-9.2-.3-2.3-.7-4.6-1.3-7.1-1.3-5.5-3.4-10.7-6.3-15.4-2.1-3.4-4.3-6.2-6.7-8.5-5.7-5.4-12.4-8.2-19.9-8.4-.5-.7-.9-.7-1.3-.7h0 0zm324.2 153.4c-.8 0-1.5-.3-2.1-.9-1-1-1-2.5-1-3v-.1c0-.1.7-10 .9-14.4 0-.7.1-2.7.2-5.5l2.2-55c0-6.1-2.7-64.4-3.2-69.3-.3-3.1 0-4.9.9-6 .5-.6 1.2-.9 1.9-.9h.5l16.9.6c1 0 1.9.9 1.8 1.9l-1.1 48.6 22.2.5-2.2-49.2c-.5-2.9 1.2-4.5 2.3-4.9.2-.1.5-.1.7-.1l14.4.3c.6 0 3.9-.3 6.9-.3 4.4 0 6.1.4 6.8 1.6.4.7.4 1.5 0 2.1-.5 1.2-1.5 9.3-2 16.2 0 .1 0 .2-.1.4-2 6.9-1.2 61.6-.9 72.8.2 6.3.9 58.6.9 59.2 0 .5-.2 1-.5 1.4-.4.4-.8.6-1.3.6l-32.1-.2c-.5 0-1-.2-1.4-.6s-.5-.9-.5-1.4l3.4-53.6-10.2.8v55.7c0 1-.8 1.9-1.8 1.9l-22.5.8h0z"/><path d="M416.8 26.4l14.5.3 6.9-.3c2.9 0 5.6.2 5.2 1-.9 1.7-2.3 16.9-2.3 16.9-2.3 7.7-1.1 67-.9 73.4s.9 59.1.9 59.1l-32.1-.2 3.6-55.8-14.1 1.1v57.4l-22.5.8c-1.3 0-1.2-1.9-1.2-1.9l.9-14.4 2.4-60.6c0-5.8-2.6-64.1-3.2-69.5-.4-4.3.5-4.7.9-4.7h.2l17.1.6-1.1 50.5 26.1.6-2.3-51.4c-.5-2.3 1-2.9 1-2.9m0-3.8c-.5 0-1 .1-1.5.3-2 .9-4 3.4-3.4 7 .3 2.2 1.3 27.9 2.1 47l-18.3-.4 1-46.7c0-2.1-1.6-3.8-3.7-3.9l-16.8-.6h-.6c-1.3 0-2.4.5-3.3 1.5-1.4 1.5-1.8 3.7-1.4 7.4.5 4.9 3.2 63 3.2 69.1 0 4.7-1.6 41.2-2.2 54.9l-.2 5.5c-.2 4.4-.9 14.2-.9 14.3v.2c0 .6 0 2.8 1.6 4.3a4.76 4.76 0 0 0 3.4 1.4h.2l22.5-.8c2-.1 3.7-1.7 3.7-3.8v-53.9l6.2-.5-3.3 51.4a3.61 3.61 0 0 0 1 2.8c.7.8 1.7 1.2 2.8 1.2l32.1.2c1 0 2-.4 2.7-1.1s1.1-1.7 1.1-2.7c0-2.2-.8-52.9-.9-59.2-.1-3.1-.4-19.3-.4-36.1 0-28.7.8-34.8 1.2-36.1.1-.2.1-.5.1-.7.5-6.3 1.4-14 1.9-15.6a3.95 3.95 0 0 0-.2-3.8c-1.2-2-3.6-2.3-4.6-2.4s-2.3-.2-3.8-.2c-3 0-6.2.2-6.9.3l-14.4-.3h0 0 0z"/></g><path d="M169.1 174.3c-3.6 0-61.7-3.4-64.1-3.6a2.05 2.05 0 0 1-1.8-2c0-.5 1.5-46.2 1.3-51.9v-6.2c.1-8.6.2-24.5-1.3-52.7v-.1l-.8-25.8c-.2-.8-.4-3 .8-4.6.5-.7 1.5-1.5 3.3-1.5h26c.2-.1.4-.1.7-.1.6 0 1.2.3 1.6.8.6.8 1 1.8 0 7.6-.2.9-.4 2.4-.8 4.2-2.6 13.5-9.6 49.5-11.2 90.6l-.7 21 41.2-9.5c.6-.2 1.2-.4 1.9-.4 3 0 3.6 3.4 3.8 4.7.5 3.2 4.1 23.2 4.5 25.3.2.7.3 1.7-.3 2.6-.6 1-2 1.6-4.1 1.6h0z" fill="#f0da48"/><path d="M133.3 27.7c.3 0 .7.8-.2 6.1-1.3 7.5-10.1 48.1-12 95l-.8 23.5 43.7-10.1c.5-.2.9-.3 1.3-.3.9 0 1.5.7 1.9 3.1l4.5 25.5s.9 1.9-2.6 1.9-64-3.6-64-3.6l1.3-52c-.2-5.8.8-21.8-1.3-58.9l-.8-26.1s-.9-3.9 2.3-3.9h26.5c0 0 .1-.2.2-.2m0-3.8c-.3 0-.7 0-1 .1h-25.7c-2 0-3.7.8-4.8 2.2-1.7 2.1-1.4 4.8-1.2 5.9l.7 25.8v.1c1.6 28.1 1.4 44 1.3 52.6v6.3c.1 4.5-.8 35.8-1.3 51.8-.1 2.1 1.5 3.8 3.6 3.9l64.2 3.6c2.8 0 4.7-.9 5.8-2.6.9-1.4.8-2.9.5-4l-4.4-25.2c-.3-1.7-.7-2.9-1.3-3.9-1-1.5-2.5-2.4-4.3-2.4-.9 0-1.8.2-2.5.5-1.7.5-22.5 5.3-38.6 9l.6-18.5c1.6-41 8.6-76.8 11.2-90.3.4-1.9.6-3.3.8-4.2.4-2.2.6-3.9.6-5.1 0-1.3-.1-2.8-1.1-4-.8-1-1.9-1.6-3.1-1.6h0 0z" fill="#fff"/><path d="M203.4 164.9c-5.4 0-10.7-2.2-17.4-5.8-5.9-3.2-10.1-9.2-12.3-18-1.7-6.6-1.9-13.5-1.6-17.8 1-12.8 1.3-43.9.6-52.8-.7-8.1-1.7-25.4-1.9-27.9-.2-.6-.4-1.7.2-2.8.4-.7 1.3-1.4 3-1.4.8 0 1.8.2 2.9.5 5.2 1.5 22.1 5.8 22.3 5.8.9.2 1.5 1.1 1.4 2-.1.5-5.1 52.4-5.1 59.3 0 1.3-.1 3.4-.3 6.1-.3 5.8-.9 14.7-.4 21.9.5 7.3 2 11.8 4.1 12 .4.1.9.1 1.3.1 6.8 0 10.9-7.9 13.1-24.9 2.4-18.7.2-37.3-6.1-74.5-.5-.9-.8-2.1-.2-3.3 1.1-2.3 4.4-2.6 5.5-2.6 5.3-.3 20.4-2 22.6-2.3.2-.1.5-.1.8-.1.7 0 1.4.3 1.8.9.7.9.9 2.2.6 4.3-.5 3.6-4.1 36.2-4.1 40.6 0 4.5-.9 33.9-1.1 38.4 0 .4-.4 8.8-2.8 17.9-2.8 10.5-6.9 17.4-12.4 20.2-5.9 2.9-10.2 4.2-14.5 4.2h0z" fill="#3ea4ca"/><path d="M235.9 40.1c.4 0 1 .4.6 3-.6 3.8-4.1 36.4-4.1 40.9s-.9 34.2-1.1 38.3-2.4 30.3-14.2 36.5c-5.4 2.8-9.5 4.2-13.6 4.2-4.8 0-9.6-1.9-16.5-5.6-12.6-6.8-13.5-26.7-13-34 1-13.1 1.3-44.3.6-53.1l-1.9-28.2s-1-1.9 1.3-1.9c.6 0 1.4.1 2.4.4 5.3 1.5 22.3 5.8 22.3 5.8l-5.1 59.5c0 7.1-3.9 40.7 5.1 41.9.5.1 1 .1 1.5.1 8.1 0 12.7-8.7 15-26.6 2.4-19 .2-37.7-6.2-75.5 0 0-2.3-3 3.6-3.4 5.8-.4 22.9-2.3 22.9-2.3h.4m0-3.8c-.4 0-.8.1-1.2.2l-22.3 2.2c-1.7.1-3 .4-4.1.9-1.8.8-2.6 2-3 2.8-.8 1.7-.5 3.4.1 4.7 6.2 36.8 8.4 55.3 6.1 73.7-1.1 8.5-2.7 14.8-4.9 18.6-2.3 4.1-4.6 4.6-6.4 4.6-.3 0-.6 0-1-.1-.3-.2-2.1-2-2.6-11.7-.3-6.8.1-14.6.5-20.2.2-2.7.3-4.8.3-6.2 0-5.5 3.3-41.1 5.1-59.1.2-1.9-1-3.6-2.8-4-.2 0-17.1-4.3-22.2-5.8-1.3-.4-2.5-.6-3.5-.6-2.8 0-4.1 1.5-4.6 2.3-.8 1.4-.8 2.9-.5 4.1l1.9 27.7c.8 8.8.4 39.7-.6 52.5-.3 4.4-.1 11.6 1.7 18.4 1.1 4.1 2.6 7.7 4.5 10.7 2.3 3.7 5.3 6.6 8.8 8.5 6.9 3.7 12.4 6 18.3 6 4.6 0 9.2-1.4 15.4-4.6 6-3.1 10.5-10.3 13.4-21.4 2.4-9.3 2.9-17.9 2.9-18.3.2-3.8 1.1-33.7 1.1-38.5 0-4.2 3.6-36.9 4.1-40.4.3-1.8.4-4.1-1.1-5.8-.9-.6-2.1-1.2-3.4-1.2h0z" fill="#fff"/><path d="M492.2 165.2c-5.3 0-10.6-1.9-17.2-6.3-5.7-3.7-9.8-9.8-11.9-17.6-2.2-8.3-1.4-15.6-1-18.3 3.3-20.2 1.3-43.8.5-52.7-.7-8.1-1.7-25.4-1.9-27.9-.2-.6-.4-1.7.2-2.8.4-.7 1.3-1.4 3-1.4.8 0 1.8.2 2.9.5 5.2 1.5 22.1 5.8 22.3 5.8.9.2 1.5 1.1 1.4 2-.1.5-5.1 52.4-5.1 59.3 0 1.3-.1 3.4-.3 6.1-.3 5.8-.9 14.7-.4 21.9.5 7.3 2 11.8 4.1 12 .4.1.9.1 1.3.1 6.8 0 10.9-7.9 13.1-24.9 2.4-18.7.2-37.3-6.1-74.5-.5-.9-.8-2.1-.2-3.3 1.1-2.3 4.4-2.6 5.5-2.6 5.3-.3 20.4-2 22.6-2.3.2-.1.5-.1.8-.1.7 0 1.4.3 1.8.9.7.9.9 2.2.6 4.3-.5 3.6-4.1 36.2-4.1 40.6 0 4.5-.9 33.9-1.1 38.4 0 .4-.4 8.8-2.8 17.9-2.8 10.5-6.9 17.4-12.4 20.2-6.2 3.3-10.9 4.7-15.6 4.7z" fill="#fdb300"/><path d="M526 40.1c.4 0 1 .4.6 3-.6 3.8-4.1 36.4-4.1 40.9s-.9 34.2-1.1 38.3-2.4 30.3-14.2 36.5c-5.7 3-10.3 4.6-14.8 4.6-5 0-9.9-1.9-16.2-6-12.1-7.9-13.5-24.7-12-34 3.3-20.4 1.3-44.3.6-53.1-.8-8.8-1.9-28.2-1.9-28.2s-1-1.9 1.3-1.9c.6 0 1.4.1 2.4.4 5.3 1.5 22.3 5.8 22.3 5.8l-5.1 59.5c0 7.1-3.9 40.7 5.1 41.9.5.1 1 .1 1.5.1 8.1 0 12.7-8.7 15-26.6 2.4-19 .2-37.7-6.2-75.5 0 0-2.3-3 3.6-3.4 5.8-.4 22.9-2.3 22.9-2.3h.3m0-3.8c-.4 0-.8.1-1.2.2l-22.3 2.2c-1.7.1-3 .4-4.1.9-1.8.8-2.6 2-3 2.8-.8 1.7-.5 3.4.1 4.7 6.2 36.8 8.4 55.3 6.1 73.7-1.1 8.5-2.7 14.8-4.9 18.6-2.3 4.1-4.6 4.6-6.4 4.6-.3 0-.6 0-1-.1-.3-.2-2.1-2-2.6-11.7-.3-6.8.1-14.6.5-20.2.2-2.7.3-4.8.3-6.2 0-5.5 3.3-41.1 5.1-59.1.2-1.9-1-3.6-2.8-4-.2 0-17.1-4.3-22.2-5.8-1.3-.4-2.5-.6-3.5-.6-2.8 0-4.1 1.5-4.6 2.3-.8 1.4-.8 2.9-.5 4.1l1.9 27.7c.7 8.8 2.7 32.2-.5 52.2-.5 2.9-1.3 10.4 1 19.1 2.2 8.2 6.6 14.7 12.7 18.7 7 4.5 12.6 6.6 18.3 6.6 5 0 9.9-1.5 16.6-5 6-3.1 10.5-10.3 13.4-21.4 2.4-9.3 2.9-17.9 2.9-18.3.2-4.5 1.1-34 1.1-38.5 0-4.2 3.6-36.9 4.1-40.4.3-1.8.4-4.1-1.1-5.8-1-.7-2.2-1.3-3.4-1.3h0 0z" fill="#fff"/><path d="M275.7 176.9h-1.2-2.9c-.7 0-1.4-.1-2.4-.2-.4-.1-.9-.1-1.3-.1l-2.8-.4c-3.2-.6-6.3-1.4-9.3-2.4-.3-.1-.5-.2-.7-.4-.1 0-.2-.1-.3-.1-.6-.3-1-1-1-1.6v-.7-1.3-3.3l.1-9.5.2-9.5.1-2.4.2-5.2.1-2.6v-1.5-1.6l.3-8.8v-1.5c0-.6 0-1.2.1-1.8l.1-4.2.1-4v-1.6c0-.6 0-1.1.1-1.7l.2-5.9.1-1.8v-.8-1.2l.1-3 .2-7.2.1-7.8.1-3.7V77l.1-8.1c.1-3.6-.1-7.1-.3-10-.2-3.6-.6-6.8-1.2-9.9-.1-.3-.1-.5-.1-.8s-.1-.5-.1-.8c-.5-2 .3-3.2 2.3-3.8 3.2-.9 6.2-1.6 9.2-1.9 2.5-.3 4.9-.5 7.2-.5 1.6 0 3.2.1 4.7.2 7.9.8 14.3 4.2 19 10 2.8 3.4 4.8 7.3 6.1 12 .9 3.2 1.4 6.5 1.7 10.1.2 3.7.2 7.6-.1 12.3-.4 5.3-1.2 9.9-2.6 14.1-1.3 3.8-3 7.3-5.3 10.2a33.28 33.28 0 0 1-3.6 3.9c1 .6 2 1.5 2.9 2.6.8 1.1 1.6 2.3 2.3 3.8.9 1.8 1.6 3.9 2.3 6.3.8 3 1.5 6.1 2 9.3.6 4.2.9 8.3.9 12.5 0 2.8-.4 5.6-1.2 8.3-1.1 3.8-3 7.2-5.5 10.1-3.9 4.4-8.7 7.5-14.3 9-2.4.7-4.6 1-6.7 1h0 0zm-.1-31c0 1-.1 2-.1 3v1.2c0 .8 0 1.6-.1 2.4-.2 1.7-.2 3.5-.3 5.3 0 .6 0 1.3-.1 1.9 1 0 2.1-.2 3.4-.5.6-.1 1.1-.3 1.6-.6a4.1 4.1 0 0 0 1.6-1.6c.3-.6.6-1.3.8-2.2.4-1.5.7-3.1 1-5.1.4-3 .6-6 .8-9.5v-1.5c0-.8-.1-1.5-.3-2.3-.6-2.6-2-4.5-4.3-5.9-1-.6-2.1-1-3.2-1.4-.1.9-.1 1.9-.2 2.8l-.4 8.5c0 1.2-.1 2.3-.1 3.5v.4.2c0 .1 0 .3-.1.4v1h0zm-1.7-67.4v.4 4.5l.1 11.3c0 1.5 0 3.1.1 4.8 1.7-1.2 3.2-2.4 4.5-3.8 2.3-2.5 3.7-5.2 4.2-8.3.5-2.5.8-5.1.9-8.1.2-3.3.2-6.5.3-10.3 0-1.8-.1-3.2-.5-4.6-.8-3.1-2.5-5.2-5.3-6.4-1.5-.6-3-1-4.6-1v.6l.2 17 .1 3.9h0z" fill="#de2d39"/><path d="M273.2 43.2l4.5.2c7.1.8 13.2 3.7 17.8 9.3 2.7 3.3 4.6 7.2 5.7 11.3.9 3.2 1.4 6.4 1.6 9.7.3 4 .2 8-.1 12-.3 4.6-1 9.2-2.5 13.6-1.1 3.5-2.8 6.7-5 9.7-1.2 1.5-2.5 3-4 4.2-.4.3-.8.6-1.1 1-.1.1-.1.3-.2.5.2.1.3.2.5.2 1.7.5 3 1.6 4.1 2.9.8 1.1 1.5 2.2 2.1 3.4.9 1.9 1.6 3.9 2.2 6 .8 3 1.5 6 1.9 9.1.6 4 .9 8.1.9 12.2 0 2.6-.4 5.2-1.1 7.7-1 3.5-2.7 6.6-5.1 9.4-3.6 4.1-8.1 7-13.4 8.5-2 .6-4.1.9-6.2.9h-.1-4c-.7 0-1.5-.1-2.2-.2-1.3-.2-2.7-.3-4-.5-3.1-.5-6-1.3-9-2.3l-.8-.4v-1.9l.1-12.8.3-11.9.2-7.8c0-1 .1-2.1.1-3.1l.3-8.8c0-1.1.1-2.2.1-3.3l.3-8.2c0-1.1.1-2.2.1-3.3l.3-7.7c0-.7.1-1.3.1-2l.3-10.2.2-11.5.2-10.2c.1-3.4-.1-6.8-.3-10.2s-.6-6.8-1.2-10.1c-.1-.5-.1-1.1-.3-1.6-.2-.9-.2-1.2 1-1.5 2.9-.8 5.9-1.5 8.9-1.9 2.2-.2 4.5-.4 6.8-.4M272 78.9l.2 15.9.1 6.6c0 .4.1.7.2 1.1 0 .1.2.1.3.1.2 0 .4-.1.5-.2 2.5-1.5 4.8-3.2 6.7-5.3 2.5-2.6 4.1-5.7 4.7-9.3.5-2.8.8-5.5.9-8.3.2-3.5.2-6.9.3-10.4 0-1.7-.1-3.4-.5-5.1-.9-3.6-3-6.2-6.4-7.7-1.9-.8-3.8-1.2-5.8-1.2h-.7c-.4 0-.6.3-.7.7v1.8l.2 21.3m1.8 65.6c-.1 1.5-.2 2.9-.2 4.4 0 1.2 0 2.3-.1 3.5-.2 2.7-.2 5.3-.3 8 0 .2 0 .5.1.7 0 .2.2.3.3.4s.2.1.3.1h.8c1.4 0 2.8-.2 4.2-.6.7-.2 1.4-.4 2-.7 1.1-.5 1.9-1.3 2.4-2.4.4-.8.7-1.7 1-2.6.5-1.8.8-3.6 1-5.4.4-3.2.6-6.4.8-9.6v-1.6c0-.9-.1-1.8-.3-2.7-.7-3.1-2.5-5.5-5.3-7.1-1.6-.9-3.4-1.6-5.3-1.9h-.1c-.3 0-.5.2-.5.4v.1l-.3 4.5-.5 12v.5m-.6-105.1v3.8-3.8c-2.4 0-4.8.2-7.5.5-3 .4-6.1 1-9.4 2-.6.2-2.3.7-3.2 2.3s-.5 3.2-.4 3.8c0 .1.1.3.1.5 0 .3.1.5.1.9.6 3 1 6.2 1.2 9.7.2 2.9.4 6.4.3 9.9-.1 2.7-.1 5.4-.1 8v2.2c0 1.2 0 2.5-.1 3.7l-.1 7.8-.2 7.2c0 1-.1 2-.1 3v1.2.8l-.1 1.9c-.1 1.9-.1 3.9-.2 5.8 0 .6 0 1.2-.1 1.7v1.6c0 1.3-.1 2.7-.1 4 0 1.4-.1 2.8-.1 4.2 0 .6 0 1.2-.1 1.8v1.5c0 1.6-.1 3.2-.2 4.8 0 1.3-.1 2.7-.1 4v1.6 1.5c0 .9-.1 1.7-.1 2.6-.1 1.7-.1 3.5-.2 5.2 0 .8 0 1.6-.1 2.4l-.2 9.5-.1 9.5v3.3 1.4.6c0 1.4.8 2.7 2.1 3.3.1 0 .1.1.2.1l1 .5c3 1.1 6.2 1.9 9.6 2.5 1 .2 2 .3 2.9.4.4 0 .9.1 1.3.1 1 .1 1.8.2 2.6.2h2.9 1.2.1c2.2 0 4.6-.4 7.2-1.1 5.9-1.7 11-4.9 15.2-9.6 2.7-3.1 4.7-6.7 5.9-10.8.8-2.8 1.2-5.8 1.2-8.8 0-4.2-.3-8.5-1-12.7-.5-3.3-1.2-6.5-2-9.5-.7-2.5-1.5-4.7-2.4-6.6-.8-1.6-1.6-3-2.5-4.1-.5-.6-1-1.1-1.5-1.6.8-.8 1.5-1.7 2.2-2.6 2.4-3.1 4.3-6.8 5.6-10.8 1.4-4.3 2.3-9.1 2.7-14.5.3-4.7.4-8.7.1-12.5-.2-3.6-.8-7.1-1.7-10.5-1.4-4.9-3.5-9.1-6.4-12.7-5.1-6.2-11.9-9.8-20.3-10.7-1.8-.3-3.4-.4-5.1-.4h0 0zm2.3 16.7h0 0 0zm.2 22.2v-3.9l-.2-15.1c.7.1 1.3.4 2 .6 2.2.9 3.6 2.6 4.2 5.1.3 1.2.4 2.5.4 4.1 0 3.8-.1 7-.3 10.2-.2 2.9-.4 5.4-.9 7.8-.5 2.8-1.7 5.2-3.8 7.4l-1.2 1.2v-1l-.1-11.3v-4.6c0-.1 0-.3-.1-.5zm1.8 67c0-.2.1-.4.1-.5v-.2-.4c0-1.2.1-2.3.1-3.5l.4-8.5v-.2l.6.3c1.9 1.1 3 2.5 3.4 4.6.1.7.2 1.3.2 1.9v1.4c-.2 3.5-.4 6.4-.8 9.3-.2 1.9-.5 3.4-.9 4.8-.2.8-.5 1.4-.7 1.9-.2.3-.4.5-.7.7-.4.2-.8.3-1.2.4s-.7.2-1.1.2c0-1.7.1-3.3.2-4.9.1-.9.1-1.7.1-2.5V149c0-1 .1-2 .1-3 .2-.2.2-.5.2-.7h0 0z" fill="#fff"/><path d="M565.8 177.2h-1.2-2.9c-.7 0-1.4-.1-2.4-.2-.4-.1-.9-.1-1.3-.1l-2.8-.4c-3.2-.6-6.3-1.4-9.3-2.4-.3-.1-.5-.2-.7-.4-.1 0-.2-.1-.3-.1-.6-.3-1-1-1-1.6v-.7-1.3-3.3l.1-9.5.2-9.5.1-2.4.2-5.2.1-2.6V136v-1.6l.3-8.8v-1.5c0-.6 0-1.2.1-1.8l.1-4.1.1-4.1v-1.6c0-.6 0-1.1.1-1.7l.2-5.9.1-1.8v-.8-1.2l.1-3 .2-7.2.1-7.8.1-3.7v-2.2l.1-8c.1-3.6-.1-7.1-.3-10-.2-3.6-.6-6.8-1.2-9.9-.1-.3-.1-.5-.1-.8s-.1-.5-.1-.8c-.5-2 .3-3.2 2.3-3.8 3.2-.9 6.2-1.6 9.2-1.9 2.5-.3 4.9-.5 7.2-.5 1.6 0 3.2.1 4.7.2 7.9.8 14.3 4.2 19 10 2.8 3.4 4.8 7.3 6.1 12 .9 3.2 1.4 6.5 1.7 10.1.2 3.7.2 7.6-.1 12.3-.4 5.3-1.2 9.9-2.6 14.1-1.3 3.8-3 7.3-5.3 10.2a33.28 33.28 0 0 1-3.6 3.9c1 .6 2 1.5 2.9 2.6.8 1.1 1.6 2.3 2.3 3.8.9 1.8 1.6 3.9 2.3 6.3.8 3 1.5 6.1 2 9.3.6 4.2.9 8.3.9 12.5 0 2.8-.4 5.6-1.2 8.3-1.1 3.8-3 7.2-5.5 10.1-3.9 4.4-8.7 7.5-14.3 9-2.4.7-4.6 1-6.7 1h0 0zm-.1-30.9c0 1-.1 2-.1 3v1.2c0 .8 0 1.6-.1 2.4-.2 1.7-.2 3.5-.3 5.3 0 .6 0 1.3-.1 1.9 1 0 2.1-.2 3.4-.5.6-.1 1.1-.3 1.6-.6a4.1 4.1 0 0 0 1.6-1.6c.3-.6.6-1.3.8-2.2.4-1.5.7-3.1 1-5.1.4-3 .6-6 .8-9.5v-1.5c0-.8-.1-1.5-.3-2.3-.6-2.6-2-4.5-4.3-5.9-1-.6-2.1-1-3.2-1.4-.1.9-.1 1.9-.2 2.8l-.4 8.5c0 1.2-.1 2.3-.1 3.5v.4.2c0 .1 0 .3-.1.4v1h0zM564 78.8v.4 4.6l.1 11.2c0 1.5 0 3.1.1 4.8 1.7-1.2 3.2-2.4 4.5-3.8 2.3-2.5 3.7-5.2 4.2-8.3.5-2.5.8-5.1.9-8.1.2-3.3.2-6.5.3-10.3 0-1.8-.1-3.2-.5-4.6-.8-3.1-2.5-5.2-5.3-6.4-1.5-.6-3-1-4.6-1v.6l.2 16.4c0 0 .1 4.5.1 4.5z" fill="#9d64eb"/><path d="M563.3 43.5l4.5.2c7.1.8 13.2 3.7 17.8 9.3 2.7 3.3 4.6 7.2 5.7 11.3.9 3.2 1.4 6.4 1.6 9.7.3 4 .2 8-.1 12-.3 4.6-1 9.2-2.5 13.6-1.1 3.5-2.8 6.7-5 9.7-1.2 1.5-2.5 3-4 4.2-.4.3-.8.6-1.1 1-.1.1-.1.3-.2.5.2.1.3.2.5.2 1.7.5 3 1.6 4.1 2.9.8 1.1 1.5 2.2 2.1 3.4.9 1.9 1.6 3.9 2.2 6 .8 3 1.5 6 1.9 9.1.6 4 .9 8.1.9 12.2 0 2.6-.4 5.2-1.1 7.7-1 3.5-2.7 6.6-5.1 9.4-3.6 4.1-8.1 7-13.4 8.5-2 .6-4.1.9-6.2.9h-.1-4c-.7 0-1.5-.1-2.2-.2-1.3-.2-2.7-.3-4-.5-3.1-.5-6-1.3-9-2.3l-.8-.4V170l.1-12.8.3-11.9.2-7.8c0-1 .1-2.1.1-3.1l.3-8.8c0-1.1.1-2.2.1-3.3l.3-8.2c0-1.1.1-2.2.1-3.3l.3-7.7c0-.7.1-1.3.1-2l.3-10.2.2-11.5.2-10.2c.1-3.4-.1-6.8-.3-10.2s-.6-6.8-1.2-10.1c-.1-.5-.1-1.1-.3-1.6-.2-.9-.2-1.2 1-1.5 2.9-.8 5.9-1.5 8.9-1.9 2.2-.2 4.5-.4 6.8-.4m-1.2 35.8l.2 15.9.1 6.6c0 .4.1.7.2 1.1 0 .1.2.1.3.1.2 0 .4-.1.5-.2 2.5-1.5 4.8-3.2 6.7-5.3 2.5-2.6 4.1-5.7 4.7-9.3.5-2.8.8-5.5.9-8.3.2-3.5.2-6.9.3-10.4 0-1.7-.1-3.4-.5-5.1-.9-3.6-3-6.2-6.4-7.7-1.9-.8-3.8-1.2-5.8-1.2h-.7c-.4 0-.6.3-.7.7V58l.2 21.3m1.8 65.6c-.1 1.5-.2 2.9-.2 4.4 0 1.2 0 2.3-.1 3.5-.2 2.7-.2 5.3-.3 8 0 .2 0 .5.1.7 0 .2.2.3.3.4s.2.1.3.1h.8c1.4 0 2.8-.2 4.2-.6.7-.2 1.4-.4 2-.7 1.1-.5 1.9-1.3 2.4-2.4.4-.8.7-1.7 1-2.6.5-1.8.8-3.6 1-5.4.4-3.2.6-6.4.8-9.6v-1.6c0-.9-.1-1.8-.3-2.7-.7-3.1-2.5-5.5-5.3-7.1-1.6-.9-3.4-1.6-5.3-1.9h-.1c-.3 0-.5.2-.5.4v.1l-.3 4.5-.5 12v.5m-.6-105.2c-2.4 0-4.8.2-7.5.5-3 .4-6.1 1-9.4 2-.6.2-2.3.7-3.2 2.3s-.5 3.2-.4 3.8c0 .1.1.3.1.5 0 .3.1.5.1.9.6 3 1 6.2 1.2 9.7.2 2.9.4 6.4.3 9.9-.1 2.7-.1 5.4-.1 8.1v2.2c0 1.2 0 2.5-.1 3.7l-.1 7.8-.2 7.2c0 1-.1 2-.1 3v1.2.8l-.1 1.8c-.1 1.9-.1 3.9-.2 5.8 0 .6 0 1.2-.1 1.7v1.6c0 1.3-.1 2.7-.1 4 0 1.4-.1 2.8-.1 4.2 0 .6 0 1.2-.1 1.8v1.5c0 1.6-.1 3.2-.2 4.8 0 1.3-.1 2.7-.1 4v1.6 1.5c0 .9-.1 1.7-.1 2.6-.1 1.7-.1 3.5-.2 5.2 0 .8 0 1.6-.1 2.4l-.2 9.5-.1 9.5v3.3 1.4.6c0 1.4.8 2.7 2.1 3.3.1 0 .1.1.2.1l1 .5c3 1.1 6.2 1.9 9.6 2.5 1 .2 2 .3 2.9.4.4 0 .9.1 1.3.1 1 .1 1.8.2 2.6.2h2.9 1.2.1c2.2 0 4.6-.4 7.2-1.1 5.9-1.7 11-4.9 15.2-9.6 2.7-3.1 4.7-6.7 5.9-10.8.8-2.8 1.2-5.8 1.2-8.8 0-4.2-.3-8.5-1-12.7-.5-3.3-1.2-6.5-2-9.5-.7-2.5-1.5-4.7-2.4-6.6-.8-1.6-1.6-3-2.5-4.1-.5-.6-1-1.1-1.5-1.6.8-.8 1.5-1.7 2.2-2.6 2.4-3.1 4.3-6.8 5.6-10.8 1.4-4.3 2.3-9.1 2.7-14.5.3-4.7.4-8.7.1-12.5-.2-3.6-.8-7.1-1.7-10.5-1.4-4.9-3.5-9.1-6.4-12.7-5.1-6.2-11.9-9.8-20.3-10.7-1.8-.3-3.4-.4-5.1-.4h0 0zm2.3 16.7h0 0 0zm.2 22.3l-.1-4.1-.2-15c.7.1 1.3.4 2 .6 2.2.9 3.6 2.6 4.2 5.1.3 1.2.4 2.5.4 4.1 0 3.8-.1 7-.3 10.2-.2 2.9-.4 5.4-.9 7.8-.5 2.8-1.7 5.2-3.8 7.4l-1.2 1.2v-1l-.1-11.3v-4.6c.1-.1.1-.3 0-.4h0 0zm1.8 66.9c0-.2.1-.4.1-.5v-.2-.4c0-1.2.1-2.3.1-3.5l.4-8.5v-.2l.6.3c1.9 1.1 3 2.5 3.4 4.6.1.7.2 1.3.2 1.9v1.4c-.2 3.5-.4 6.4-.8 9.3-.2 1.9-.5 3.4-.9 4.8-.2.8-.5 1.4-.7 1.9-.2.3-.4.5-.7.7-.4.2-.8.3-1.2.4s-.7.2-1.1.2c0-1.7.1-3.3.2-4.9.1-.9.1-1.7.1-2.5v-1.1c0-1 .1-2 .1-3 .2-.2.2-.4.2-.7h0 0z" fill="#fff"/><path d="M43.1 178.5c-4.8 0-9.4-1.5-13.7-4.4-2.3-1.6-4.4-3.6-6.5-6.1-1.8-2.1-3.4-4.5-5-7.3-2.4-4.3-4.6-9.1-6.6-14.8-1.8-5.2-3.2-10.6-4.2-16-.5-2.6-.8-5.1-1.1-7.5-.1-.9-.2-1.8-.2-2.7-.1-1.1-.1-2.1-.3-3.1-.1-.4-.1-.8-.1-1.1v-.2c-.2-5.5-.1-10.9 0-17.4 0-.4 0-.8.1-1.2v-.4c0-.3 0-.6.1-.8 0-.6.1-1.1.1-1.6.1-1.2.2-2.5.2-3.7v-.6l.3-2.6.3-2.8c.1-1.2.2-2.3.4-3.4 1.1-7.2 2.2-12.6 3.6-17.5 1.8-6.1 3.9-11.3 6.4-15.9 2.3-4.2 5-7.7 8-10.6 3.9-3.8 8.4-6.4 13.3-7.9 3.1-.9 5.8-1.4 8.4-1.4h1 1.7 1.1c7.1.2 13.3 2.8 18.6 7.9 2.3 2.2 4.4 4.9 6.4 8.1 2.7 4.5 4.8 9.5 6.1 14.8.6 2.2 1 4.5 1.3 6.8.3 2.7.7 5.8.6 9 0 .3 0 .7-.1.9v.1c-.1 1-.9 1.9-2 2.2-.1 0-.2 0-.3.1-.2 0-.5.1-.7.1-.6.1-1.2.2-1.8.2-1 .1-2.1.2-3.3.4-.7.1-1.5.2-2.2.2-.8.1-1.6.1-2.3.3-.7.1-1.4.2-2.1.2-.8.1-1.6.1-2.3.3-.4.1-.7.1-.9.1h-.3c-1.7 0-3.1-1.3-3.2-3v-1.4-.2V72v-4.9a37.08 37.08 0 0 0-.3-4.7c-.1-.5-.1-1-.1-1.6l-.3-2.9c-.5-3.6-1.1-6.4-2.1-8.8-.5-1.4-1.1-2.6-1.9-3.7-1.7-2.5-4-4-7-4.6-.2 0-.5-.1-.8-.1h-1.7-.8c-1.9.1-3.9.8-5.9 2.3-.9.6-1.7 1.4-2.4 2.3-1.2 1.4-2.2 3.1-3.1 5-1.1 2.3-2 4.9-2.8 7.9-.8 3.1-1.4 6-1.8 8.9-.1.3-.1.7-.2 1-.2 1.5-.4 2.8-.5 4.3-.1 1.2-.2 2.5-.4 3.7-.1.5-.1 1.1-.2 1.6v.1.1c0 1.4-.1 2.7-.2 4-.1 1.5-.2 3-.2 4.5 0 .8 0 1.6-.1 2.3 0 .3 0 .7-.1 1v.5c0 .5-.1 1-.1 1.4 0 1.8-.1 3.7-.1 5.6v2.4 3.3l.1 9.2c0 .9.1 1.8.1 2.7 0 .5.1.9.1 1.4 0 .6.1 1.2.1 1.9v.6c0 1.5.1 3 .3 4.5.1.4.1.9.1 1.2v.5c.1.7.1 1.4.2 2.1v.4.1c0 .1.1.3.1.6.1 2.3.4 4.6.7 6.8l.1.6c.9 6.3 2 11.2 3.5 15.6.6 1.6 1.2 3.1 1.8 4.3.7 1.3 1.3 2.4 2.1 3.4.5.6 1 1.2 1.6 1.6a5.43 5.43 0 0 0 3.4 1.2c1.3 0 2.3-.1 3.2-.3 2.4-.5 4.5-1.7 6.4-3.5 1.2-1.1 2.2-2.4 3.2-4 1.6-2.5 2.9-5.5 4-9 .6-1.9 1.1-3.9 1.5-6.3.6-3.3.8-6.9.7-11.3v-2.1c.1-1.5 1.3-2.9 2.8-3h0 .5.1.3a17.33 17.33 0 0 0 3.2-.3c.5-.1 1-.1 1.4-.2 1.2-.1 2.4-.3 3.6-.6.4-.1.8-.2 1.3-.2.9-.2 1.7-.3 2.6-.5l1.7-.3c.3-.1.5-.1.8-.1.9 0 1.7.3 2.3.9.7.7 1.1 1.5 1.1 2.3v.3c0 1 0 2.1-.1 3.2 0 .3 0 .6-.1.9 0 .3-.1.6-.1.8 0 2.6-.3 5.1-.5 6.9-.9 7.5-2.5 13.6-4.8 19.2-1.9 4.4-4.1 8.1-6.8 11.4-4.9 5.8-11 9.6-18.4 11.4-3.6 1.2-7.2 1.3-9.9 1.3h0 0z" fill="#2dac39"/><path d="M49.4 29.2h1c6.8.2 12.5 2.7 17.4 7.3 2.4 2.3 4.4 4.9 6.1 7.7 2.7 4.5 4.6 9.2 5.8 14.3.5 2.2.9 4.4 1.2 6.6.3 2.9.6 5.8.6 8.7 0 .3 0 .6-.1.9 0 .2-.3.4-.5.5h-.2c-.8.1-1.6.3-2.3.3-1.2.1-2.3.2-3.4.4-1.5.2-3 .2-4.5.5s-3 .2-4.5.6h-.5-.2c-.7 0-1.3-.6-1.3-1.2v-1.5-7.5a40.28 40.28 0 0 0-.3-4.9c-.2-1.5-.3-3-.5-4.5-.4-3.1-1-6.2-2.2-9.2-.5-1.4-1.2-2.8-2.1-4.1-2-2.9-4.7-4.7-8.2-5.3-.4-.1-.7-.1-1.1-.1h-2.4-.1c-2.7 0-5.1 1-7.3 2.6-1 .8-1.9 1.7-2.7 2.7-1.3 1.7-2.4 3.5-3.4 5.4-1.3 2.6-2.2 5.4-3 8.2-.8 3-1.4 6-1.9 9.1-.3 1.8-.6 3.6-.7 5.4s-.4 3.5-.6 5.3v.4c-.1 2.9-.5 5.7-.5 8.6 0 1.1-.1 2.2-.2 3.3 0 .7-.1 1.3-.1 2l-.1 8.1.1 12.6c0 1.4.1 2.8.2 4.2 0 .6.1 1.2.1 1.8 0 1.8 0 3.5.3 5.3.1.5 0 1.1.1 1.6.1.8.1 1.7.2 2.5 0 .2.1.4.1.5.1 2.6.5 5.1.8 7.6.8 5.4 1.8 10.8 3.6 16 .5 1.6 1.1 3.1 1.9 4.5.7 1.3 1.4 2.6 2.3 3.7.6.7 1.2 1.4 1.9 1.9 1.3 1.1 2.8 1.7 4.5 1.7 1.2 0 2.4-.1 3.6-.3 2.8-.6 5.2-2 7.3-3.9 1.4-1.3 2.5-2.8 3.5-4.4 1.9-2.9 3.2-6.1 4.2-9.5.7-2.1 1.2-4.4 1.5-6.6.7-3.9.8-7.7.7-11.6v-2c0-.6.6-1.2 1.2-1.2h.3.4c1.6 0 3.3-.3 4.9-.4 1.7-.2 3.4-.5 5-.9 1.4-.3 2.9-.6 4.3-.8h.4c.3 0 .7.1 1 .4s.5.6.5.9c0 1.2 0 2.3-.1 3.5 0 .6-.1 1.2-.1 1.8 0 2.3-.2 4.5-.5 6.7-.8 6.4-2.1 12.7-4.7 18.7-1.7 3.9-3.8 7.6-6.5 10.9-4.6 5.5-10.4 9.1-17.4 10.8-3.1.7-6.2.9-9.4.9-4.7 0-8.8-1.5-12.6-4.1-2.3-1.6-4.3-3.6-6.1-5.7-1.8-2.2-3.4-4.6-4.8-7.1-2.6-4.6-4.7-9.5-6.4-14.5-1.8-5.1-3.2-10.3-4.1-15.7-.4-2.5-.8-4.9-1.1-7.4-.3-1.9-.2-3.9-.6-5.8-.1-.4 0-.7-.1-1.1-.2-5.8-.1-11.6 0-17.3 0-.5.1-1 .1-1.5.1-.8.1-1.7.2-2.5l.3-4.2c.1-1.8.4-3.6.5-5.4.1-1.1.2-2.2.4-3.3.9-5.8 1.9-11.6 3.6-17.3 1.6-5.4 3.5-10.6 6.3-15.5 2.1-3.7 4.6-7.2 7.6-10.2 3.6-3.5 7.8-6 12.6-7.5 2.6-.8 5.2-1.3 7.9-1.3 1.1 0 2-.1 2.9-.1m0-3.8h-1.7-1c-2.8 0-5.7.5-8.9 1.5-5.3 1.6-10 4.4-14.1 8.4-3.2 3.1-5.9 6.7-8.3 11.1-2.6 4.7-4.8 10-6.6 16.3C7.3 67.8 6.1 73.2 5 80.5c-.2 1.1-.3 2.3-.4 3.6l-.3 2.7-.3 2.7v.6c-.1 1.2-.2 2.5-.2 3.8 0 .5-.1 1-.1 1.6 0 .3 0 .6-.1.9v.4c0 .4-.1.8-.1 1.3-.1 6.5-.2 12 0 17.5v.2c0 .4 0 .8.1 1.4.2.9.2 1.9.3 2.9.1.9.1 1.8.3 2.8.3 2.4.7 5 1.1 7.6 1 5.5 2.4 10.9 4.3 16.3 2 5.8 4.2 10.7 6.7 15.1 1.7 2.9 3.4 5.4 5.2 7.6 2.2 2.7 4.4 4.8 6.9 6.4 4.6 3.2 9.5 4.8 14.7 4.8h0c2.8 0 6.5-.1 10.3-1 7.7-1.8 14.3-5.9 19.4-12 2.8-3.4 5.2-7.3 7.1-11.8 2.4-5.7 4.1-12.1 5-19.7.2-1.9.5-4.5.5-7.2v-.7c0-.3.1-.7.1-1 0-1.1.1-2.1.1-3.2v-.3c0-1-.3-2.4-1.6-3.7-1-.9-2.2-1.4-3.6-1.4-.4 0-.7 0-1.1.1l-1.7.3c-.8.2-1.7.3-2.6.5-.4.1-.9.2-1.3.2-1.2.2-2.3.5-3.4.6-.5 0-1 .1-1.5.2-1.1.1-2.1.2-3 .2h-.3-.1-.7 0c-2.4.3-4.4 2.4-4.5 4.9v2.2c.1 4.3-.1 7.8-.7 10.9-.4 2.3-.9 4.3-1.4 6.1-1.1 3.4-2.3 6.2-3.8 8.6-.9 1.5-1.9 2.7-2.9 3.7-1.7 1.6-3.5 2.5-5.5 3-.8.2-1.7.3-2.8.3-.8 0-1.5-.3-2.2-.8-.5-.4-.9-.8-1.3-1.3-.7-.8-1.3-1.8-1.9-3s-1.1-2.5-1.7-4.1c-1.5-4.3-2.6-9-3.4-15.3l-.1-.6c-.3-2.3-.6-4.5-.7-6.6 0-.4-.1-.7-.1-.8v-.3c-.1-.7-.1-1.4-.2-2.1v-.4c0-.4 0-.9-.1-1.5-.2-1.3-.2-2.7-.3-4.2v-.6c0-.7 0-1.3-.1-1.9 0-.5-.1-1-.1-1.4-.1-.9-.1-1.8-.1-2.6l-.1-9.2v-3.3-2.3c0-2 .1-3.8.1-5.7 0-.4 0-.9.1-1.3v-.5c0-.3 0-.7.1-1 .1-.8.1-1.6.1-2.5 0-1.4.1-2.8.2-4.3.1-1.3.2-2.7.2-4v-.1c.1-.5.1-1.1.2-1.6.1-1.2.3-2.5.4-3.8s.3-2.7.5-4.1c.1-.4.1-.7.2-1.1.4-2.8 1-5.6 1.8-8.7.8-2.9 1.7-5.3 2.7-7.6.9-1.8 1.8-3.3 2.9-4.7.7-.8 1.3-1.5 2.1-2 1.7-1.3 3.3-1.8 5-1.8h.1.7 1.6.5c2.5.5 4.4 1.7 5.8 3.8.6.9 1.2 2 1.6 3.3.9 2.3 1.5 4.9 2 8.4l.3 2.8c0 .5.1 1 .2 1.6.2 1.5.2 3.1.2 4.5v4.9 2.6.2V77c.1 2.6 2.5 4.8 5.1 4.8h0 0 .1.1c.4 0 .8 0 1.4-.2.6-.1 1.3-.2 2-.3s1.4-.1 2.2-.3c.6-.1 1.4-.2 2.1-.2.7-.1 1.5-.1 2.3-.2 1.2-.2 2.2-.3 3.2-.4.7-.1 1.3-.2 1.9-.3.2 0 .4-.1.7-.1.2 0 .4-.1.5-.1 1.8-.4 3.3-2 3.4-3.8v-.1c0-.3.1-.7.1-1.1 0-3.3-.3-6.5-.6-9.2-.3-2.3-.7-4.6-1.3-7.1-1.5-6.2-3.6-11.4-6.4-16-2.1-3.4-4.3-6.2-6.7-8.5-5.7-5.4-12.4-8.2-19.9-8.4-.4-.1-.7-.1-1.1-.1h0 0z" fill="#fff"/><path d="M373.5 178.8c-.8 0-1.5-.3-2.1-.9-1-1-1-2.5-1-3v-.1c0-.1.7-10 .9-14.4 0-.7.1-2.7.2-5.5l2.2-55c0-6.1-2.7-64.4-3.2-69.3-.3-3.1 0-4.9.9-6 .5-.6 1.2-.9 1.9-.9h.5l16.9.6c1 0 1.9.9 1.8 1.9L391.4 75l22.2.5-2.2-49.2c-.5-2.9 1.2-4.5 2.3-4.9.2-.1.5-.1.7-.1l14.4.3c.6 0 3.9-.3 6.9-.3 4.4 0 6.1.4 6.8 1.6.4.7.4 1.5 0 2.1-.5 1.2-1.5 9.3-2 16.2 0 .1 0 .2-.1.4-2 6.9-1.2 61.6-.9 72.8.2 6.3.9 58.6.9 59.2 0 .5-.2 1-.5 1.4-.4.4-.8.6-1.3.6l-32.1-.2c-.5 0-1-.2-1.4-.6s-.5-.9-.5-1.4l3.4-53.6-10.2.8v55.7c0 1-.8 1.9-1.8 1.9l-22.5.8c.1-.2 0-.2 0-.2h0z" fill="#f797c5"/><g fill="#fff"><path d="M414.5 23.1l14.5.3 6.9-.3c2.9 0 5.6.2 5.2 1-.9 1.7-2.3 16.9-2.3 16.9-2.3 7.7-1.1 67-.9 73.4s.9 59.1.9 59.1l-32.1-.2 3.6-55.8-14.1 1.1V176l-22.5.8c-1.3 0-1.2-1.9-1.2-1.9l.9-14.4 2.4-60.6c0-5.8-2.6-64.1-3.2-69.5-.4-4.3.5-4.7.9-4.7h.2l17.1.6-1.1 50.5 26.1.6-2.3-51.4c-.5-2.3 1-2.9 1-2.9m0-3.8c-.5 0-1 .1-1.5.3-2 .9-4 3.4-3.4 7 .3 2.2 1.3 27.9 2.1 47l-18.3-.4 1-46.7c0-2.1-1.6-3.8-3.7-3.9L374 22h-.6c-1.3 0-2.4.5-3.3 1.5-1.4 1.5-1.8 3.7-1.4 7.4.5 4.9 3.2 63 3.2 69.1 0 4.7-1.6 41.2-2.2 54.9l-.2 5.5c-.2 4.4-.9 14.2-.9 14.3v.2c0 .6 0 2.8 1.6 4.3a4.76 4.76 0 0 0 3.4 1.4h.2l22.5-.8c2-.1 3.7-1.7 3.7-3.8v-53.9l6.2-.5-3.3 51.4a3.61 3.61 0 0 0 1 2.8c.7.8 1.7 1.2 2.8 1.2l32.1.2c1 0 2-.4 2.7-1.1s1.1-1.7 1.1-2.7c0-2.2-.8-52.9-.9-59.2-.1-3.1-.4-19.3-.4-36.1 0-28.7.8-34.8 1.2-36.1.1-.2.1-.5.1-.7.5-6.3 1.4-14 1.9-15.6a3.95 3.95 0 0 0-.2-3.8c-1.2-2-3.6-2.3-4.6-2.4s-2.3-.2-3.8-.2c-3 0-6.2.2-6.9.3l-14.5-.3h0 0z"/><circle cx="624.4" cy="168.7" r="11.3"/></g><path d="M624.3 180.2c-6.1 0-11.1-5-11.1-11.1s5-11.1 11.1-11.1 11.1 5 11.1 11.1-5 11.1-11.1 11.1zm0-20.8c-5.3 0-9.6 4.3-9.6 9.6s4.3 9.6 9.6 9.6 9.6-4.3 9.6-9.6c.1-5.3-4.3-9.6-9.6-9.6zm2.9 15.3c-.9-1.1-2.4-2-3-3.2-.4-.3-.7-1.4-1.1-1.6 0 .3.1 1 .1 1.4 0 .7-.5 1.8 0 2.4-.3.4 0 .9 0 1.3 0 .2-.2.4-.7.5-.3 0-.5-.2-.7-.3l.2-5.5c0-.4-.5-.2 0-1-.1-.4-.2-1.2-.1-1.6-.2-.4 0-.9-.2-1.4-.4.1-.9.4-1.3.1 0-.3 0-.7.5-.8.4 0 .7-.2 1-.5-.3-.4 0-.7.6-.8.2-.1.6-.1.8 0 .1.1-.2.7-.1.8.5-.1 1-.2 1.5-.2.9 0 1.7.2 2.4.5l.3.2c0 .4.3.6.3 1.1 0 .4-.2 1-.6 1.3l-.9 1c-1.1.6-1.1.4-2.2 1 .5.8.8 1.6 1.4 2.2.6.7 1.3 1.4 2.3 2.2.1.1.8.5.8.7.2.4-.6.5-1.3.2zm-.7-9.2l-.9-.6c-.6-.2-1.9.1-2.6.3 0 .2-.2.9.1 1-.1.7-.1 1.5-.1 2.3.1.1.3-.3.5-.2 1.2-.3 2.5-.8 3-1.7 0-.4.4-.3.2-.7l-.2-.4z" fill="#4c74d5"/></svg>